<mxfile host="app.diagrams.net" modified="2021-12-03T09:34:23.343Z" agent="5.0 (Windows NT 10.0; Win64; x64) AppleWebKit/537.36 (KHTML, like Gecko) Chrome/96.0.4664.45 Safari/537.36" etag="t3ADKuiCrwoT-l5wL1jY" version="15.8.9" type="github">
  <diagram id="7iIN9meiuznvdkrw8BYY" name="Page-1">
    <mxGraphModel dx="868" dy="454" grid="1" gridSize="10" guides="1" tooltips="1" connect="1" arrows="1" fold="1" page="1" pageScale="1" pageWidth="827" pageHeight="1169" math="0" shadow="0">
      <root>
        <mxCell id="0" />
        <mxCell id="1" parent="0" />
        <mxCell id="eRgWJZlX0qM9WgS-55uM-7" style="edgeStyle=orthogonalEdgeStyle;rounded=0;orthogonalLoop=1;jettySize=auto;html=1;exitX=1;exitY=0.5;exitDx=0;exitDy=0;entryX=0;entryY=0.5;entryDx=0;entryDy=0;" edge="1" parent="1" source="eRgWJZlX0qM9WgS-55uM-1" target="eRgWJZlX0qM9WgS-55uM-2">
          <mxGeometry relative="1" as="geometry" />
        </mxCell>
        <mxCell id="eRgWJZlX0qM9WgS-55uM-8" style="edgeStyle=orthogonalEdgeStyle;rounded=0;orthogonalLoop=1;jettySize=auto;html=1;exitX=1;exitY=0.5;exitDx=0;exitDy=0;entryX=0;entryY=0.5;entryDx=0;entryDy=0;" edge="1" parent="1" source="eRgWJZlX0qM9WgS-55uM-1" target="eRgWJZlX0qM9WgS-55uM-3">
          <mxGeometry relative="1" as="geometry" />
        </mxCell>
        <mxCell id="eRgWJZlX0qM9WgS-55uM-9" style="edgeStyle=orthogonalEdgeStyle;rounded=0;orthogonalLoop=1;jettySize=auto;html=1;exitX=1;exitY=0.5;exitDx=0;exitDy=0;entryX=0;entryY=0.5;entryDx=0;entryDy=0;" edge="1" parent="1" source="eRgWJZlX0qM9WgS-55uM-1" target="eRgWJZlX0qM9WgS-55uM-4">
          <mxGeometry relative="1" as="geometry" />
        </mxCell>
        <mxCell id="eRgWJZlX0qM9WgS-55uM-10" style="edgeStyle=orthogonalEdgeStyle;rounded=0;orthogonalLoop=1;jettySize=auto;html=1;exitX=1;exitY=0.5;exitDx=0;exitDy=0;entryX=0;entryY=0.5;entryDx=0;entryDy=0;" edge="1" parent="1" source="eRgWJZlX0qM9WgS-55uM-1" target="eRgWJZlX0qM9WgS-55uM-6">
          <mxGeometry relative="1" as="geometry" />
        </mxCell>
        <mxCell id="eRgWJZlX0qM9WgS-55uM-1" value="Amener le véhicule maître VAB jusqu&#39;au point d&#39;arrivée" style="rounded=0;whiteSpace=wrap;html=1;" vertex="1" parent="1">
          <mxGeometry x="120" y="280" width="120" height="80" as="geometry" />
        </mxCell>
        <mxCell id="eRgWJZlX0qM9WgS-55uM-2" value="Désactiver Les pièges" style="rounded=0;whiteSpace=wrap;html=1;" vertex="1" parent="1">
          <mxGeometry x="360" y="60" width="120" height="60" as="geometry" />
        </mxCell>
        <mxCell id="eRgWJZlX0qM9WgS-55uM-3" value="Réaliser des comptes rendus" style="rounded=0;whiteSpace=wrap;html=1;" vertex="1" parent="1">
          <mxGeometry x="360" y="180" width="120" height="60" as="geometry" />
        </mxCell>
        <mxCell id="eRgWJZlX0qM9WgS-55uM-4" value="Faire un point de situation à l&#39;arrivée sur chaque LIMA" style="rounded=0;whiteSpace=wrap;html=1;" vertex="1" parent="1">
          <mxGeometry x="360" y="300" width="120" height="60" as="geometry" />
        </mxCell>
        <mxCell id="eRgWJZlX0qM9WgS-55uM-6" value="Respecter les zones d&#39;exclusion" style="rounded=0;whiteSpace=wrap;html=1;" vertex="1" parent="1">
          <mxGeometry x="360" y="420" width="120" height="60" as="geometry" />
        </mxCell>
        <mxCell id="eRgWJZlX0qM9WgS-55uM-11" value="Lui donner les consignes pour se déplacer" style="rounded=0;whiteSpace=wrap;html=1;" vertex="1" parent="1">
          <mxGeometry x="360" y="540" width="120" height="60" as="geometry" />
        </mxCell>
      </root>
    </mxGraphModel>
  </diagram>
</mxfile>
